<?xml version="1.0" encoding="utf-8"?>
<!-- Generator: Adobe Illustrator 16.0.0, SVG Export Plug-In . SVG Version: 6.00 Build 0)  -->
<!DOCTYPE svg PUBLIC "-//W3C//DTD SVG 1.1//EN" "http://www.w3.org/Graphics/SVG/1.1/DTD/svg11.dtd">
<svg version="1.1" id="icon-logo" xmlns="http://www.w3.org/2000/svg" xmlns:xlink="http://www.w3.org/1999/xlink" x="0px" y="0px"
	 width="792px" height="284.628px" viewBox="0 163.686 792 284.628" enable-background="new 0 163.686 792 284.628"
	 xml:space="preserve">
<path fill="#E2001A" d="M447.777,293.625c-1.993-12.239-3.242-26.816-1.318-37.7c0.681-3.836,1.906-8.886,3.997-12.647
	c2.116-3.774,5.086-6.274,9.281-5.012C469.439,241.186,461.692,276.442,447.777,293.625 M650.021,256.735
	c2.617,0.606,7.469,1.751,5.321,11.162c-3.273,14.404-17.832,25.09-36.593,25.728C627.685,270.948,639.726,254.316,650.021,256.735
	 M790.663,381.908c-2.703-4.832-8.601-6.404-13.186-3.496c-15.419,9.795-30.226,13.328-35.12,12.035
	c-0.371-4.579,3.911-18.136,12.313-29.205c12.375-16.316,16.849-30.133,13.31-41.092c-1.807-5.507-6.441-12.684-18.52-15.598
	c-15.679-3.793-33.363,11.243-51.214,32.131c3.897-16.88,6.645-34.005,8.224-51.257c0.922-9.714-4.542-12.666-6.931-13.464
	c-7.827-2.679-10.543,5.445-12.82,9.133c-2.531,4.256-4.972,8.566-7.319,12.926c-9.17,16.57-39,66.565-54.049,62.933
	c-14.818-3.589-14.77-26.724-10.562-47.267c28.345,1.714,51.312-13.798,56.752-38.511c3.78-17.158-3.923-31.154-19.157-34.835
	c-22.788-5.507-42.545,19.119-53.273,50.18c-4.369-0.841-13.465-3.774-16.88-6.082c0.848-23.834-1.98-49.785-15.487-53.058
	c-11.206-2.704-20.462,3.403-23.036,15.159c-3.211,14.448,4.127,33.004,18.841,46.796c-1.324,17.554-4.888,36.073-11.67,46.944
	c-3.545,5.674-5.939,5.724-7.152,5.477c-2.487-1.844-15.159-44.946-17.709-80.147c-0.903-12.103-10.395-14.683-15.345-14.479
	c-6.175,0.272-10.989,5.797-10.791,12.344c1.831,55.935-9.819,70.662-13.439,73.841c-1.894,1.665-4.764,3.403-10.283,2.061
	c-6.436-1.547-13.118-10.308-18.401-22.386c23.797-21.242,39.433-57.724,34.712-82.418c-2.364-12.251-9.758-20.722-20.296-23.265
	c-21.062-5.099-38.598,9.355-44.648,36.834c-4.492,20.456-1.77,46.802,6.051,69.133c-10.66,14.578-20.746,28.296-30.875,25.852
	c-7.487-1.807-9.362-23.104,10.271-73.495c5.012-12.895,2.636-22.665-0.267-28.605c-5.643-11.639-18.253-19.905-37.496-24.552
	c-4.598-1.107-9.155-2.379-13.662-3.812c-3.774-19.051-10.327-32.237-22.479-35.182c-12.189-2.945-24.422,5.16-27.25,18.055
	c-3.521,15.933,10.964,27.243,29.812,35.083c1.503,12.313,2.277,26.21,2.89,39.55c2.413,53.243-2.679,67.475-4.727,70.983
	c-6.361-3.298-15.611-22.733-20.091-39.291c-1.572-5.89-7.166-9.479-12.839-8.31c-5.692,1.207-9.609,6.806-9.015,12.907
	c2.376,24.997-6.039,49.519-14.324,51.294c-0.612,0.137-1.986,0.427-4.529-2.345c-9.832-10.76-16.187-43.845-9.962-72.084
	c4.536-20.58,9.604-26.594,12.425-25.913c2.797,0.668,4.801,2.37,9.714,14.157c3.304,7.92,9.281,8.693,13.885,6.924
	c5.792-2.271,7.239-8.372,5.482-14.652c-6.026-21.607-18.142-31.396-31.358-30.319c-10.271,0.817-24.15,9.232-31.909,44.55
	c-2.066,9.337-2.995,19.274-2.995,29.144c-0.099,18.147-17.61,60.229-25.783,65.154c-1.287,0.482-1.584,0.217-1.733,0.093
	c-1.299-1.12-12.394-13-2.382-88.296c5.952-44.612,9.776-92.75-19.763-99.891c-8.873-2.153-17.442-0.148-24.769,5.792
	c-13.983,11.385-21.773,48.231-27.064,80.375c-3.706-63.898-23.259-102.131-48.071-102.75c-7.672-0.198-14.485,3.062-19.676,9.473
	C60.848,190.51,61.968,250.38,67.79,310.053c-10.036-55.285-28.549-101.939-45.131-124.461c-3.787-5.167-13.439-6.701-18.34-2.636
	c-4.888,4.065-5.754,11.508-1.961,16.663c25.715,34.922,50.694,129.956,65.649,186.714c4.09,15.55,7.623,28.97,10.438,38.53
	c3.576,12.065,7.332,21.328,14.905,23.166c7.574,1.837,12.944-5.588,14.114-10.928c1.176-5.327-0.903-12.325-4.975-36.296
	c-5.321-31.444-12.616-79.107-16.217-122.828c-5.557-67.629,2.042-85.017,5.606-89.348c0.996-1.238,1.547-1.238,2.153-1.225
	c0.557,0.043,11.917,0.711,23.203,62.494c7.011,38.319,11.614,83.569,13.384,107.706c0.439,5.835,0.767,10.544,1.064,13.799
	c0.452,4.949,1.398,15.282,11.385,15.66c4.826,0.186,10.556-3.057,11.756-10.686c0.439-2.828,0.644-7.871,1.083-18.972
	c3.459-89.199,12.709-140.511,27.485-152.521c2.017-1.64,3.737-2.066,6.138-1.485c2.853,0.693,11.422,8.025,2.704,73.569
	c-10.816,81.403,0.786,101.785,10.457,110.026c6.67,5.662,15.042,6.931,23.612,3.564c10.061-3.973,18.971-22.856,25.121-43.021
	c3.007,8.291,6.856,15.4,11.465,20.455c4.27,4.647,9.158,7.673,14.336,8.923c3.482,0.835,7.108,0.871,10.605,0.105
	c14.046-3.026,22.956-16.212,27.881-32.194c5.42,7.723,12.078,13.94,20.01,15.859c6.441,1.547,13.415,0.711,17.696-4.437
	c8.867-10.624,13.384-38.505,10.934-92.701c-0.483-10.686-1.027-20.976-1.875-30.566c1.708,0.458,5.94,2.233,7.617,2.642
	c11.855,2.871,20.357,7.493,22.721,12.375c0.458,0.891,1.59,3.279-0.501,8.687c-17.14,44.006-21.391,72.146-13.415,88.63
	c3.681,7.567,9.838,12.598,17.82,14.528c20.896,5.043,37.311-14.72,45.67-27.126c7.592,13.26,17.368,23.073,28.66,25.802
	c26.384,6.379,36.859-18.501,41.729-44.5c8.415,35.33,16.632,45.268,26.229,47.588c5.865,1.423,17.17,1.688,26.835-12.486
	c5.012-7.339,9.027-17.826,11.936-31.093c0.916-4.108,1.881-9.825,2.698-16.391c2.536,1.25,10.487,3.614,13.26,4.548
	c-7.196,35.541,0.52,64.227,27.225,70.68c21.396,5.18,41.153-19.021,59.672-49.766c-3.556,16.349-8.253,32.428-14.058,48.12
	c-3.539,9.615,1.899,13.835,3.657,14.912c7.325,4.455,12.962-2.519,15.078-5.124c1.732-2.152,3.911-5.061,6.683-8.736
	c7.363-9.776,18.655-24.261,29.546-35.912c8.854-9.455,15.562-13.359,19.36-12.443c5.605,1.361,5.42,9.622-2.537,20.265
	c-7.803,10.444-17.387,31.6-14.856,46.592c1.22,7.232,5.05,10.988,8.057,12.87c1.968,1.237,4.127,2.097,6.373,2.636
	c18.767,4.535,45.991-12.202,49.357-14.343C791.857,392.996,793.354,386.747,790.663,381.908"/>
</svg>
